<svg width="1440" height="810" viewBox="0 0 1440 810" fill="none" xmlns="http://www.w3.org/2000/svg">
  <rect width="1440" height="810" fill="#202422"/>
  <rect x="1" y="1" width="1438" height="808" stroke="#F3F1E8" stroke-opacity=".14" stroke-width="2"/>
  <path d="M0 64H1440" stroke="#F3F1E8" stroke-opacity=".12"/>
  <circle cx="34" cy="32" r="5" fill="#F3F1E8" fill-opacity=".3"/>
  <circle cx="54" cy="32" r="5" fill="#F3F1E8" fill-opacity=".3"/>
  <circle cx="74" cy="32" r="5" fill="#B7E04A"/>
  <text x="112" y="39" fill="#F3F1E8" fill-opacity=".5" font-family="monospace" font-size="15" letter-spacing="2">GETVIDEOFRAMES DESKTOP</text>

  <rect x="48" y="112" width="318" height="578" fill="#151A17"/>
  <rect x="390" y="112" width="1002" height="440" fill="#151A17"/>
  <rect x="390" y="576" width="1002" height="114" fill="#151A17"/>

  <rect x="80" y="160" width="254" height="10" fill="#F3F1E8" fill-opacity=".1"/>
  <rect x="80" y="198" width="164" height="10" fill="#F3F1E8" fill-opacity=".1"/>
  <rect x="80" y="236" width="214" height="10" fill="#F3F1E8" fill-opacity=".1"/>
  <rect x="80" y="310" width="254" height="1" fill="#F3F1E8" fill-opacity=".12"/>
  <rect x="80" y="350" width="112" height="86" stroke="#F3F1E8" stroke-opacity=".18"/>
  <rect x="208" y="350" width="126" height="86" fill="#B7E04A"/>
  <rect x="80" y="452" width="126" height="86" stroke="#F3F1E8" stroke-opacity=".18"/>
  <rect x="222" y="452" width="112" height="86" stroke="#F3F1E8" stroke-opacity=".18"/>

  <g opacity=".9">
    <rect x="430" y="154" width="284" height="164" fill="#F3F1E8" fill-opacity=".07" stroke="#F3F1E8" stroke-opacity=".16"/>
    <rect x="734" y="154" width="284" height="164" fill="#B7E04A" stroke="#151A17" stroke-width="2"/>
    <rect x="1038" y="154" width="314" height="164" fill="#F3F1E8" fill-opacity=".07" stroke="#F3F1E8" stroke-opacity=".16"/>
    <rect x="430" y="338" width="284" height="164" fill="#F3F1E8" fill-opacity=".07" stroke="#F3F1E8" stroke-opacity=".16"/>
    <rect x="734" y="338" width="284" height="164" fill="#F3F1E8" fill-opacity=".07" stroke="#F3F1E8" stroke-opacity=".16"/>
    <rect x="1038" y="338" width="314" height="164" fill="#F3F1E8" fill-opacity=".07" stroke="#F3F1E8" stroke-opacity=".16"/>
  </g>

  <path d="M430 632H1352" stroke="#F3F1E8" stroke-opacity=".16"/>
  <rect x="716" y="612" width="4" height="40" fill="#B7E04A"/>
  <circle cx="718" cy="632" r="8" fill="#B7E04A" stroke="#151A17" stroke-width="2"/>

  <rect x="504" y="723" width="432" height="42" fill="#151A17"/>
  <text x="720" y="750" text-anchor="middle" fill="#F3F1E8" fill-opacity=".72" font-family="monospace" font-size="15" letter-spacing="2">DESKTOP SCREENSHOT PLACEHOLDER</text>
</svg>
